<svg xmlns="http://www.w3.org/2000/svg" viewBox="0 0 512 512">
  <rect width="512" height="512" fill="#0a0a0c"/>
  <path d="M256 0C114.6 0 0 114.6 0 256s114.6 256 256 256 256-114.6 256-256S397.4 0 256 0z" fill="#1e1b4b"/>
  <path d="M366.6 348.4c-26.6 23.4-63.4 37.6-110.6 37.6-88.4 0-155.4-62.8-155.4-151.2s67-151.2 155.4-151.2c42.8 0 79.4 14.8 106.6 39.8l-42 43.6c-15.2-14.2-34-23.8-64.6-23.8-49.8 0-89.8 37.6-89.8 91.6s40 91.6 89.8 91.6c34.2 0 54.4-13.8 68.6-29.2 21-23.2 26-58.8 26-92.4h-94.6v-56.8h158.4c2.8 12.8 4.2 28.2 4.2 44.8 0 89-51.6 155.6-152 155.6z" fill="#22d3ee" transform="translate(40 40) scale(0.85)"/>
</svg>